<svg style="display:none"><defs><svg id="op3-icons-cart-2" xmlns="http://www.w3.org/2000/svg" viewBox="0 0 32 32"><path fill="currentColor" d="M1.143.01A1 1 0 00.2 1.6L3 5.332v12.391L.143 22.485A1 1 0 001 24h30a1 1 0 100-2H2.768l1.799-3H24a1 1 0 00.933-.64l5-13A1 1 0 0029 4H4.5L1.803.4a.997.997 0 00-.659-.39zM5 26a3 3 0 100 6 3 3 0 000-6zm22 0a3 3 0 100 6 3 3 0 000-6z"/></svg><svg id="op3-icons-check-2-2" xmlns="http://www.w3.org/2000/svg" viewBox="0 0 32 32"><path fill="currentColor" d="M28.586 5.586L12 22.172l-8.586-8.586-2.828 2.828L12 27.828 31.414 8.414l-2.828-2.828z"/></svg><svg id="op3-icons-ob-arrow-right-4" xmlns="http://www.w3.org/2000/svg" viewBox="0 0 128 128"><path fill="currentColor" d="M0 0l32 64-32 64h32l32-64L32 0H0zm64 0l32 64-32 64h32l32-64L96 0H64z"/></svg><svg id="op3-icons-small-right" xmlns="http://www.w3.org/2000/svg" viewBox="0 0 32 32"><path fill="currentColor" d="M13 8.586L11.586 10l6 6-6 6L13 23.414 20.414 16 13 8.586z"/></svg></defs></svg>